<?xml version="1.0" encoding="UTF-8" standalone="no"?>
<!-- Created with Inkscape (http://www.inkscape.org/) -->

<svg
   width="566.35199mm"
   height="61.967224mm"
   viewBox="0 0 566.35199 61.967225"
   version="1.1"
   id="svg65258"
   inkscape:version="1.1.1 (3bf5ae0d25, 2021-09-20)"
   sodipodi:docname="image-2.svg"
   xmlns:inkscape="http://www.inkscape.org/namespaces/inkscape"
   xmlns:sodipodi="http://sodipodi.sourceforge.net/DTD/sodipodi-0.dtd"
   xmlns:xlink="http://www.w3.org/1999/xlink"
   xmlns="http://www.w3.org/2000/svg"
   xmlns:svg="http://www.w3.org/2000/svg">
  <sodipodi:namedview
     id="namedview65260"
     pagecolor="#ffffff"
     bordercolor="#666666"
     borderopacity="1.0"
     inkscape:pageshadow="2"
     inkscape:pageopacity="0.0"
     inkscape:pagecheckerboard="0"
     inkscape:document-units="mm"
     showgrid="false"
     fit-margin-top="1.28"
     fit-margin-left="1.28"
     fit-margin-right="1.28"
     fit-margin-bottom="1.28"
     lock-margins="true"
     inkscape:zoom="0.77771465"
     inkscape:cx="109.29459"
     inkscape:cy="232.73318"
     inkscape:window-width="3440"
     inkscape:window-height="1295"
     inkscape:window-x="3440"
     inkscape:window-y="32"
     inkscape:window-maximized="1"
     inkscape:current-layer="layer1" />
  <defs
     id="defs65255">
    <linearGradient
       id="linearGradient3727"
       inkscape:swatch="solid">
      <stop
         style="stop-color:#ffd2c3;stop-opacity:1;"
         offset="0"
         id="stop3725" />
    </linearGradient>
    <linearGradient
       id="linearGradient943"
       inkscape:swatch="solid">
      <stop
         style="stop-color:#003e73;stop-opacity:1;"
         offset="0"
         id="stop941" />
    </linearGradient>
    <linearGradient
       inkscape:collect="always"
       xlink:href="#linearGradient943"
       id="linearGradient945"
       x1="25.91267"
       y1="118.18161"
       x2="589.70465"
       y2="118.18161"
       gradientUnits="userSpaceOnUse" />
    <linearGradient
       inkscape:collect="always"
       xlink:href="#linearGradient3727"
       id="linearGradient3729"
       x1="25.780383"
       y1="118.18161"
       x2="589.83692"
       y2="118.18161"
       gradientUnits="userSpaceOnUse" />
  </defs>
  <g
     inkscape:label="Layer 1"
     inkscape:groupmode="layer"
     id="layer1"
     transform="translate(-24.632669,-87.198001)">
    <g
       aria-label="برواية السوسي عن أبي عمرو البصري"
       id="text79454"
       style="font-size:50.7997px;line-height:1.25;font-family:'KFGQPC SOOSI Uthmanic Script';-inkscape-font-specification:'KFGQPC SOOSI Uthmanic Script, Normal';stroke-width:0.7;fill:url(#linearGradient945);fill-opacity:1;stroke:url(#linearGradient3729);stroke-opacity:1;stroke-miterlimit:4;stroke-dasharray:none">
      <path
         d="m 586.45521,119.06218 q 0.69454,0.69453 1.26504,1.51309 0.59532,0.81855 1.0418,1.71152 0.44649,0.89297 0.69453,1.83555 0.24805,0.94257 0.24805,1.90996 0,0.42168 -0.0496,0.94257 -0.0496,0.5209 -0.14883,1.06661 -0.0992,0.52089 -0.27285,1.01699 -0.14883,0.47129 -0.37207,0.81855 -0.59531,0.89297 -1.66191,1.43868 -1.0418,0.5457 -2.30684,0.81855 -1.26504,0.27285 -2.57969,0.37207 -1.28984,0.0744 -2.35644,0.0744 h -0.44649 q -0.76894,0 -1.16582,-0.59531 -0.39687,-0.62012 -0.39687,-1.36426 0,-0.74414 0.39687,-1.33945 0.39688,-0.62012 1.16582,-0.62012 h 0.44649 q 1.19062,0 2.35644,-0.0248 1.19063,-0.0496 2.23242,-0.14883 1.06661,-0.0992 1.90996,-0.27285 0.84336,-0.19844 1.33946,-0.5209 0.27285,-0.14883 0.27285,-0.37207 0.0248,-0.22324 -0.0992,-0.57051 -0.24805,-0.64492 -0.57051,-1.19062 -0.29765,-0.54571 -0.66972,-1.0418 -0.39688,-0.5209 -0.81856,-0.99219 -0.42168,-0.47129 -0.89297,-0.94257 l 0.81856,-3.47266 q 0.0744,-0.27285 0.24804,-0.27285 0.17364,0 0.37207,0.22324 z m -2.60449,18.38027 3.05098,2.53008 q 0.19844,0.17363 0.0248,0.39688 l -2.03398,2.55488 q -0.17363,0.24805 -0.39688,0.0496 l -3.07578,-2.53008 q -0.19843,-0.17363 0,-0.42168 l 2.05879,-2.53008 q 0.17364,-0.22324 0.37207,-0.0496 z"
         style="font-size:50.8px;fill:url(#linearGradient945);fill-opacity:1;stroke:url(#linearGradient3729);stroke-opacity:1;stroke-width:0.7;stroke-miterlimit:4;stroke-dasharray:none"
         id="path105568" />
      <path
         d="m 572.68859,126.00749 q 0.0992,-0.34726 0.34726,-0.0496 0.76895,0.91778 1.5379,1.46348 0.76894,0.5209 1.5875,0.79375 0.42167,0.14883 0.81855,0.24805 0.39687,0.0744 0.81855,0.14882 0.44649,0.0496 0.96739,0.0744 0.5209,0 1.19062,0 h 0.44649 q 0.79375,0 1.19062,0.62012 0.39688,0.59531 0.39688,1.31464 0,0.74414 -0.39688,1.36426 -0.39687,0.59531 -1.19062,0.59531 h -0.44649 q -0.81855,0 -1.68672,-0.0496 -0.84336,-0.0744 -1.66191,-0.19843 -0.24805,1.36426 -0.59531,2.55488 -0.34727,1.21543 -0.71934,2.25723 -0.89297,2.30683 -2.08359,4.11757 -1.14102,1.78594 -3.44785,3.02618 -1.26504,0.69453 -2.6293,1.04179 -1.36426,0.34727 -2.72852,0.42168 -0.89297,0.0496 -1.76113,0.0248 -0.84336,-0.0248 -1.73633,-0.14883 -0.89297,-0.0992 -1.83554,-0.34727 -0.96739,-0.22324 -2.03399,-0.62011 -0.29765,-0.12403 -0.39687,-0.29766 -0.12403,-0.17363 -0.0496,-0.34726 0.12402,-0.32247 0.99218,-0.32247 1.48829,0.0248 2.75332,-0.0496 1.26504,-0.0744 2.45567,-0.34726 1.19062,-0.24805 2.38125,-0.71934 1.21543,-0.44648 2.6293,-1.21543 1.51308,-0.81855 2.70371,-1.86035 1.19062,-1.01699 2.08359,-2.20762 0.86816,-1.19062 1.48828,-2.50527 0.62012,-1.31465 0.96738,-2.72851 -0.94257,-0.39688 -1.83554,-1.09141 -0.89297,-0.69453 -1.46348,-1.43867 z"
         style="font-size:50.8px;fill:url(#linearGradient945);fill-opacity:1;stroke:url(#linearGradient3729);stroke-opacity:1;stroke-width:0.7;stroke-miterlimit:4;stroke-dasharray:none"
         id="path105570" />
      <path
         d="m 552.07589,123.70066 q -0.37207,0.0248 -0.66972,0.29765 -0.29766,0.24805 -0.5209,0.59531 -0.19844,0.32247 -0.32246,0.66973 -0.0992,0.34727 -0.0992,0.5209 0.32246,0.5209 0.89297,0.71934 0.57051,0.17363 1.14101,0.17363 0.64493,-0.0496 1.16582,-0.29766 0.54571,-0.27285 0.74414,-0.5209 0,-0.32246 -0.24804,-0.69453 -0.22324,-0.39687 -0.59532,-0.71933 -0.34726,-0.32246 -0.76894,-0.5209 -0.39688,-0.22324 -0.71934,-0.22324 z m 3.22461,4.36562 q -0.34726,1.0418 -1.26504,1.76113 -0.91777,0.71934 -2.25722,0.71934 -0.66973,0 -1.28985,-0.34727 -0.59531,-0.34726 -1.04179,-0.89296 -0.44649,-0.57051 -0.69453,-1.28985 -0.22325,-0.71933 -0.14883,-1.46347 0.0496,-0.5209 0.22324,-1.21543 0.17363,-0.69454 0.44648,-1.41387 0.27286,-0.71934 0.62012,-1.43867 0.37207,-0.71934 0.81856,-1.26504 0.44648,-0.54571 0.94257,-0.89297 0.4961,-0.34727 1.0418,-0.34727 0.96738,0 1.81074,0.76895 0.84336,0.76894 1.46348,1.95957 0.62012,1.16582 0.96738,2.60449 0.34727,1.41387 0.32246,2.75332 -0.0248,1.78594 -0.47129,3.7207 -0.42168,1.90997 -1.14101,3.77032 -0.71934,1.86035 -1.66192,3.49746 -0.91777,1.66191 -1.95957,2.80293 -1.53789,1.68672 -3.27421,2.57968 -1.71153,0.91778 -3.59668,1.19063 -1.88516,0.27285 -3.94395,0 -2.03398,-0.27285 -4.2168,-0.94258 -0.19843,-0.0744 -0.24804,-0.24805 -0.0744,-0.17363 0.0248,-0.37207 0.0744,-0.17363 0.29766,-0.32246 0.19844,-0.12402 0.5457,-0.0992 2.08359,0.17364 3.77031,-0.0744 1.71153,-0.24805 3.175,-0.86816 1.48828,-0.59532 2.85254,-1.53789 1.36426,-0.94258 2.80293,-2.20762 0.96738,-0.84336 1.86035,-1.95957 0.91778,-1.11621 1.63711,-2.30684 0.74414,-1.21543 1.24024,-2.43086 0.49609,-1.21543 0.69453,-2.25722 0.0248,-0.22325 0,-0.4961 -0.0248,-0.29765 -0.0744,-0.5705 -0.0496,-0.27286 -0.12402,-0.4961 -0.0744,-0.24805 -0.14883,-0.37207 z"
         style="font-size:50.8px;fill:url(#linearGradient945);fill-opacity:1;stroke:url(#linearGradient3729);stroke-opacity:1;stroke-width:0.7;stroke-miterlimit:4;stroke-dasharray:none"
         id="path105572" />
      <path
         d="m 536.44894,100.43386 q 0.39688,0.0248 0.37207,0.91777 -0.0496,0.94258 0.0248,1.86035 0.0744,0.89297 0.19843,1.81075 0.24805,2.20761 0.59532,4.56406 0.34726,2.33164 0.69453,4.71289 0.32246,2.35645 0.64492,4.71289 0.32246,2.35645 0.5457,4.58887 0.0992,0.86816 0.12403,2.03398 0.0496,1.16582 -0.0248,2.38125 -0.0496,1.19063 -0.27285,2.30684 -0.19844,1.11621 -0.57051,1.86035 -0.19844,0.42168 -0.47129,0.5457 -0.22324,0.0248 -0.19844,-0.19844 -0.14882,-2.158 -0.37207,-4.34082 -0.19843,-2.20761 -0.52089,-4.48964 -0.32247,-2.35645 -0.64493,-4.66328 -0.32246,-2.30684 -0.62011,-4.61368 -0.32246,-2.30683 -0.64493,-4.61367 -0.29765,-2.30683 -0.59531,-4.63848 0.0744,-0.5705 0.22324,-1.16582 0.14883,-0.62011 0.42168,-1.26503 0.59532,-1.61231 0.79375,-1.95957 0.22325,-0.34727 0.29766,-0.34727 z"
         style="font-size:50.8px;fill:url(#linearGradient945);fill-opacity:1;stroke:url(#linearGradient3729);stroke-opacity:1;stroke-width:0.7;stroke-miterlimit:4;stroke-dasharray:none"
         id="path105574" />
      <path
         d="m 526.82472,119.06218 q 0.69453,0.69453 1.26504,1.51309 0.59531,0.81855 1.0418,1.71152 0.44648,0.89297 0.69453,1.83555 0.24805,0.94257 0.24805,1.90996 0,0.42168 -0.0496,0.94257 -0.0496,0.5209 -0.14883,1.06661 -0.0992,0.52089 -0.27285,1.01699 -0.14883,0.47129 -0.37207,0.81855 -0.59532,0.89297 -1.66192,1.43868 -1.04179,0.5457 -2.30683,0.81855 -1.26504,0.27285 -2.57969,0.37207 -1.28984,0.0744 -2.35645,0.0744 h -0.44648 q -0.76895,0 -1.16582,-0.59531 -0.39688,-0.62012 -0.39688,-1.36426 0,-0.74414 0.39688,-1.33945 0.39687,-0.62012 1.16582,-0.62012 h 0.44648 q 1.19063,0 2.35645,-0.0248 1.19062,-0.0496 2.23242,-0.14883 1.0666,-0.0992 1.90996,-0.27285 0.84336,-0.19844 1.33945,-0.5209 0.27286,-0.14883 0.27286,-0.37207 0.0248,-0.22324 -0.0992,-0.57051 -0.24805,-0.64492 -0.57051,-1.19062 -0.29766,-0.54571 -0.66973,-1.0418 -0.39687,-0.5209 -0.81855,-0.99219 -0.42168,-0.47129 -0.89297,-0.94257 l 0.81855,-3.47266 q 0.0744,-0.27285 0.24805,-0.27285 0.17363,0 0.37207,0.22324 z m 2.53008,23.21719 q -0.12402,0.14883 -0.19844,0.14883 -0.0744,0.0248 -0.27285,-0.12403 l -2.95176,-2.30683 -1.93476,2.6541 q -0.17364,0.22324 -0.37207,0.0744 l -3.1502,-2.43086 q -0.17363,-0.12402 -0.0496,-0.29765 l 2.00918,-2.85254 q 0.0992,-0.14883 0.17363,-0.14883 0.0744,0 0.17364,0.0992 l 2.97656,2.25722 2.03398,-2.60449 q 0.14883,-0.19844 0.29766,-0.0744 l 3.1502,2.62929 q 0.17363,0.12403 0,0.34727 z"
         style="font-size:50.8px;fill:url(#linearGradient945);fill-opacity:1;stroke:url(#linearGradient3729);stroke-opacity:1;stroke-width:0.7;stroke-miterlimit:4;stroke-dasharray:none"
         id="path105576" />
      <path
         d="m 505.51748,123.45261 q -0.32246,0.49609 -0.0744,0.62012 0.69453,0.42168 1.66191,0.42168 0.99219,0 1.98438,-0.24805 0.96738,-0.22324 1.78594,-0.57051 0.81855,-0.34726 1.16582,-0.64492 -0.0992,-0.49609 -0.19844,-0.86816 -0.0744,-0.37207 -0.17363,-0.76895 -0.0744,-0.37207 -0.17364,-0.79375 -0.0744,-0.44648 -0.19843,-1.0418 -0.86817,0.27286 -1.68672,0.62012 -0.81856,0.34727 -1.53789,0.81856 -0.74414,0.49609 -1.38907,1.11621 -0.62011,0.59531 -1.16582,1.33945 z m 5.87871,-11.06289 q 0.0992,-0.22324 0.27286,-0.17363 0.19843,0.0248 0.22324,0.17363 0.19844,1.24023 0.5209,3.00137 0.32246,1.76113 0.66972,3.54707 0.37207,1.81074 0.71934,3.37343 0.37207,1.53789 0.62012,2.35645 0.39687,1.24023 1.01699,2.03398 0.64492,0.76895 1.41387,1.21543 0.76894,0.44649 1.66191,0.62012 0.91777,0.14883 1.86035,0.14883 h 0.44649 q 0.79375,0 1.19062,0.62012 0.39688,0.59531 0.39688,1.33945 0,0.71933 -0.39688,1.33945 -0.39687,0.59531 -1.19062,0.59531 h -0.44649 q -2.03398,0.0496 -3.42305,-0.64492 -1.38906,-0.71933 -2.28203,-1.81074 -0.94258,-1.14102 -1.38906,-2.50527 -0.44648,-1.36426 -0.91777,-2.75332 -0.94258,1.21543 -1.81075,1.90996 -0.86816,0.69453 -1.73632,1.01699 -0.89297,0.32246 -1.90996,0.39687 -1.017,0.0496 -1.88516,-0.0496 -0.81856,-0.0992 -1.48828,-0.59532 -0.64492,-0.49609 -0.57051,-1.38906 0.19844,-1.41387 0.71934,-2.60449 0.5457,-1.21543 1.19062,-2.18281 1.01699,-1.46348 2.50527,-2.50528 0.74415,-0.5457 1.61231,-0.99219 0.89297,-0.44648 1.93476,-0.86816 -0.0496,-0.29766 -0.14882,-0.79375 -0.0744,-0.5209 -0.17364,-0.96738 -0.0496,-0.19844 0.0496,-0.59531 0.0992,-0.39688 0.22325,-0.81856 0.14882,-0.44648 0.29765,-0.84336 0.14883,-0.39687 0.22324,-0.59531 z m 2.95176,-3.175 q -0.12402,0.14883 -0.19844,0.17363 -0.0744,0 -0.27285,-0.14883 l -2.95176,-2.30683 -1.93476,2.6541 q -0.17363,0.22324 -0.37207,0.0744 l -3.1502,-2.43086 q -0.17363,-0.12402 -0.0496,-0.29765 l 2.00918,-2.85254 q 0.0992,-0.14883 0.17364,-0.14883 0.0744,0 0.17363,0.0992 l 2.97656,2.25723 2.03399,-2.6045 q 0.14882,-0.19843 0.29765,-0.0744 l 3.1502,2.6293 q 0.17363,0.12402 0,0.34726 z"
         style="font-size:50.8px;fill:url(#linearGradient945);fill-opacity:1;stroke:url(#linearGradient3729);stroke-opacity:1;stroke-width:0.7;stroke-miterlimit:4;stroke-dasharray:none"
         id="path105578" />
      <path
         d="m 484.8056,100.43386 q 0.39687,0.0248 0.37207,0.91777 -0.0496,0.94258 0.0248,1.86035 0.0744,0.89297 0.19844,1.81075 0.24805,2.20761 0.59531,4.56406 0.34727,2.33164 0.69454,4.71289 0.32246,2.35645 0.64492,4.71289 0.32246,2.35645 0.5457,4.58887 0.0992,0.86816 0.12402,2.03398 0.0496,1.16582 -0.0248,2.38125 -0.0496,1.19063 -0.27285,2.30684 -0.19844,1.11621 -0.57051,1.86035 -0.19844,0.42168 -0.47129,0.5457 -0.22324,0.0248 -0.19844,-0.19844 -0.14882,-2.158 -0.37207,-4.34082 -0.19843,-2.20761 -0.5209,-4.48964 -0.32246,-2.35645 -0.64492,-4.66328 -0.32246,-2.30684 -0.62011,-4.61368 -0.32247,-2.30683 -0.64493,-4.61367 -0.29765,-2.30683 -0.59531,-4.63848 0.0744,-0.5705 0.22324,-1.16582 0.14883,-0.62011 0.42168,-1.26503 0.59532,-1.61231 0.79375,-1.95957 0.22325,-0.34727 0.29766,-0.34727 z"
         style="font-size:50.8px;fill:url(#linearGradient945);fill-opacity:1;stroke:url(#linearGradient3729);stroke-opacity:1;stroke-width:0.7;stroke-miterlimit:4;stroke-dasharray:none"
         id="path105580" />
      <path
         d="m 474.16438,99.044797 q 0.0744,-0.223242 0.19843,-0.272851 0.12403,-0.04961 0.19844,0.272851 0.19844,0.595313 0.44649,1.215433 0.24804,0.62011 0.5705,1.21543 0.34727,0.59531 0.79375,1.11621 0.44649,0.49609 1.017,0.84336 -0.34727,0.59531 -0.62012,1.04179 -0.24805,0.42168 -0.42168,0.79375 -0.17363,0.34727 -0.24805,0.69453 -0.0744,0.32247 -0.0248,0.69454 0.27285,2.38125 0.62011,4.7873 0.37207,2.38125 0.69454,4.7625 0.34726,2.38125 0.59531,4.7625 0.27285,2.38125 0.34726,4.78731 0.0248,0.79375 -0.0992,1.6123 -0.12403,0.81855 -0.39688,1.5627 -0.27285,0.74414 -0.69453,1.41386 -0.39688,0.64492 -0.91777,1.09141 -0.71934,0.62012 -1.78594,0.89297 -1.0418,0.24804 -2.55488,0.24804 h -0.44649 q -0.79375,0 -1.19062,-0.59531 -0.42168,-0.62012 -0.42168,-1.33945 0,-0.74414 0.42168,-1.33945 0.39687,-0.62012 1.19062,-0.62012 h 0.44649 q 0.81855,0 1.5875,-0.0496 0.76894,-0.0744 1.41386,-0.22324 0.64492,-0.17364 1.09141,-0.44649 0.47129,-0.29765 0.66973,-0.74414 -0.4961,-5.23379 -1.28985,-10.31875 -0.79375,-5.10976 -1.53789,-10.26914 -0.14883,-1.0418 -0.32246,-2.03398 -0.14883,-1.01699 -0.71934,-1.95957 -0.19843,-0.27285 -0.22324,-0.34727 -0.0248,-0.0992 0.12403,-0.39687 0.42167,-0.71934 0.76894,-1.46348 0.37207,-0.768946 0.71934,-1.389063 z"
         style="font-size:50.8px;fill:url(#linearGradient945);fill-opacity:1;stroke:url(#linearGradient3729);stroke-opacity:1;stroke-width:0.7;stroke-miterlimit:4;stroke-dasharray:none"
         id="path105582" />
      <path
         d="m 457.9421,124.24636 q 0.29766,-0.49609 0.59532,-0.47129 0.32246,0.0248 0.17363,0.59531 -0.12402,0.5209 -0.34727,1.09141 -0.22324,0.5457 -0.49609,1.19062 0.17363,0.42168 0.76895,0.84336 0.62011,0.39688 1.38906,0.69453 0.74414,0.27286 1.51308,0.39688 0.79375,0.12402 1.31465,-0.0744 0.84336,-0.27286 1.38906,-1.51309 0.54571,-1.26504 0.94258,-2.6541 0.19844,-0.74414 0.5209,-0.86817 0.32246,-0.12402 0.37207,0.54571 0.0992,1.24023 0.44649,2.1332 0.34726,0.89297 1.04179,1.43867 1.31465,1.09141 4.31602,1.09141 h 0.44648 q 0.79375,0 1.19063,0.62012 0.39687,0.62011 0.39687,1.33945 0,0.71933 -0.39687,1.33945 -0.39688,0.59531 -1.19063,0.59531 h -0.44648 q -1.31465,0 -2.25723,-0.14882 -0.94258,-0.17364 -1.83554,-0.54571 -2.0836,-0.89297 -3.1502,-2.95175 -0.17363,0.39687 -0.44648,0.94257 -0.27286,0.54571 -0.64493,1.0666 -0.34726,0.4961 -0.76894,0.84336 -0.42168,0.34727 -0.89297,0.34727 -0.62012,0 -1.43867,-0.14883 -0.81856,-0.14883 -1.63711,-0.47129 -0.84336,-0.29765 -1.61231,-0.76894 -0.74414,-0.4961 -1.26504,-1.16582 -0.86816,0.99218 -1.95957,1.66191 -1.0666,0.64492 -2.28203,0.84336 -1.24023,0.22324 -2.60449,0 -1.33945,-0.24805 -2.75332,-0.99219 -0.64492,0.47129 -1.41387,0.76895 -0.76894,0.29765 -1.51308,0.44648 -0.76895,0.17364 -1.46348,0.22324 -0.69453,0.0496 -1.21543,0.0496 h -0.44648 q -0.74414,0 -1.11621,-0.59531 -0.37207,-0.62012 -0.37207,-1.33945 0,-0.71934 0.37207,-1.33945 0.37207,-0.62012 1.11621,-0.62012 h 0.44648 q 1.48828,0 2.75332,-0.0992 1.26504,-0.12402 2.38125,-0.5457 1.09141,-0.39688 2.05879,-1.21543 0.99219,-0.81856 1.88516,-2.23243 0.32246,-0.52089 0.5457,-0.44648 0.24805,0.0496 0.14883,0.57051 -0.17363,0.89297 -0.57051,1.90996 -0.39687,1.01699 -0.96738,1.73633 0.49609,0.14883 1.21543,0.22324 0.74414,0.0744 1.56269,0 1.21543,-0.0992 2.28203,-0.49609 1.09141,-0.42168 1.95957,-1.26504 0.54571,-0.4961 1.017,-1.14102 0.49609,-0.66973 0.94257,-1.43867 z"
         style="font-size:50.8px;fill:url(#linearGradient945);fill-opacity:1;stroke:url(#linearGradient3729);stroke-opacity:1;stroke-width:0.7;stroke-miterlimit:4;stroke-dasharray:none"
         id="path105584" />
      <path
         d="m 431.62434,128.11589 q 0.14883,0.32246 0.74414,0.49609 0.62012,0.17364 1.36426,0.24805 0.74414,0.0496 1.46348,0.0248 0.74414,-0.0248 1.11621,-0.0744 0,-0.0992 -0.27285,-0.49609 -0.24805,-0.39688 -0.66973,-0.81856 -0.42168,-0.44648 -0.94258,-0.79375 -0.49609,-0.37207 -0.99218,-0.42168 -0.27286,0 -0.59532,0.19844 -0.29765,0.17363 -0.5705,0.47129 -0.27286,0.27285 -0.47129,0.59531 -0.17364,0.32246 -0.17364,0.57051 z m 5.45703,4.48965 -2.48046,0.0496 q -1.0418,0.0496 -1.98438,-0.19844 -0.91777,-0.27285 -1.6123,-0.79375 -0.66973,-0.5457 -1.0418,-1.33945 -0.34727,-0.81856 -0.22324,-1.86035 0.0744,-0.69454 0.49609,-1.71153 0.42168,-1.01699 1.0666,-1.95957 0.64492,-0.96738 1.43867,-1.63711 0.79375,-0.69453 1.61231,-0.69453 0.86816,0 1.6123,0.71934 0.76895,0.69453 1.36426,1.66191 0.57051,0.99219 0.94258,2.0836 0.37207,1.0666 0.47129,1.83554 l 1.98437,-0.0744 h 0.47129 q 0.37207,0 0.66973,0.17363 0.29766,0.17363 0.49609,0.44649 0.19844,0.27285 0.29766,0.62011 0.0992,0.34727 0.0992,0.71934 0.0248,0.71933 -0.37207,1.33945 -0.39688,0.59531 -1.19063,0.59531 h -0.47129 l -2.08359,0.0248 q -0.44648,2.1084 -1.0418,4.14238 -0.5705,2.03399 -1.46347,3.74551 -0.91778,1.71152 -2.23243,3.00137 -1.28984,1.28984 -3.175,1.88515 -1.24023,0.44649 -2.75332,0.57051 -1.48828,0.12402 -3.05097,0.0248 -1.53789,-0.0744 -3.02617,-0.34727 -1.51309,-0.27285 -2.72852,-0.62012 -0.34727,-0.0992 -0.42168,-0.29765 -0.0992,-0.17364 0,-0.34727 0.0744,-0.17363 0.32246,-0.29766 0.24805,-0.12402 0.59531,-0.0992 1.16582,0.12402 2.53008,0.0248 1.38906,-0.0744 2.77813,-0.34727 1.41386,-0.24804 2.72851,-0.66972 1.31465,-0.42168 2.33164,-0.99219 1.41387,-0.76894 2.50528,-1.83555 1.0914,-1.0666 1.95957,-2.33164 0.86816,-1.26504 1.48828,-2.57968 0.64492,-1.28985 1.0914,-2.6293 z"
         style="font-size:50.8px;fill:url(#linearGradient945);fill-opacity:1;stroke:url(#linearGradient3729);stroke-opacity:1;stroke-width:0.7;stroke-miterlimit:4;stroke-dasharray:none"
         id="path105586" />
      <path
         d="m 392.65618,124.81687 q 0.17363,0.96738 0.94258,1.51308 0.76894,0.54571 1.83554,0.86817 1.06661,0.29765 2.25723,0.44648 1.21543,0.12402 2.28203,0.27285 0.5209,0.0744 1.09141,0.24805 0.57051,0.14883 1.04179,0.44648 0.47129,0.29766 0.76895,0.74414 0.29766,0.44649 0.29766,1.09141 0.0496,1.73633 -0.84336,3.175 -0.86817,1.43867 -2.20762,2.50527 -1.41387,1.11622 -3.22461,2.1084 -1.78594,1.017 -3.7207,1.76114 -1.93477,0.76894 -3.91914,1.19062 -1.98438,0.42168 -3.77032,0.37207 -2.30683,-0.0496 -4.36562,-0.74414 -2.05879,-0.66973 -3.59668,-1.98437 -1.53789,-1.28985 -2.43086,-3.19981 -0.89297,-1.88516 -0.86816,-4.36562 0.0248,-2.48047 0.89297,-4.7625 0.86816,-2.30684 2.30683,-4.53926 0.17363,-0.24805 0.39688,-0.0744 0.24804,0.17364 0.14882,0.47129 -0.37207,1.11621 -0.79375,2.28203 -0.42168,1.14102 -0.74414,2.30684 -0.29765,1.14102 -0.39687,2.30684 -0.0992,1.16582 0.17363,2.30683 0.39688,1.71153 1.41387,2.85254 1.0418,1.16582 2.43086,1.86035 1.41387,0.71934 3.00137,1.01699 1.6123,0.32247 3.15019,0.32247 1.98438,0 3.89434,-0.34727 1.90996,-0.32246 3.67109,-0.91777 1.78594,-0.59532 3.37344,-1.43868 1.6123,-0.81855 2.97656,-1.83554 0.0992,-0.0744 0.27285,-0.22324 0.17363,-0.12403 0.32246,-0.27286 0.17364,-0.14882 0.29766,-0.27285 0.12402,-0.14883 0.12402,-0.22324 -0.0496,-0.17363 -0.69453,-0.37207 -0.62012,-0.19844 -1.48828,-0.39687 -0.86816,-0.19844 -1.81074,-0.37208 -0.94258,-0.17363 -1.5875,-0.29765 -0.86817,-0.14883 -1.73633,-0.44649 -0.86816,-0.32246 -1.5627,-0.84336 -0.69453,-0.5457 -1.14101,-1.31464 -0.44649,-0.76895 -0.44649,-1.81075 0,-0.84336 0.39688,-1.86035 0.42168,-1.04179 1.09141,-2.05879 0.69453,-1.01699 1.5875,-1.98437 0.89296,-0.96738 1.88515,-1.71152 0.99219,-0.74415 1.98438,-1.19063 1.01699,-0.44648 1.90996,-0.44648 0.5457,0 1.04179,0.29765 0.5209,0.29766 0.99219,0.74414 0.47129,0.44649 0.91778,0.99219 0.47128,0.5209 0.94257,1.01699 1.0418,1.09141 2.20762,1.73633 1.16582,0.62012 2.38125,0.79375 1.21543,0.17363 2.40606,-0.0744 1.21542,-0.24805 2.30683,-0.91778 1.19063,-0.71933 1.95957,-1.83554 0.79375,-1.11621 1.38906,-2.75332 0.12403,-0.24805 0.32246,-0.39688 0.22325,-0.14883 0.39688,-0.14883 0.19844,0 0.29766,0.14883 0.12402,0.14883 0.0496,0.44649 -0.14883,0.66972 -0.32247,1.21543 -0.17363,0.52089 -0.42168,1.28984 0.0992,0.44648 0.79375,0.99219 0.69454,0.52089 1.63711,0.91777 0.94258,0.39687 1.98438,0.5209 1.0418,0.12402 1.86035,-0.24805 0,-0.91777 -0.0992,-1.81074 -0.0992,-0.89297 -0.49609,-1.81074 0.29765,-0.74414 0.69453,-1.5627 0.39687,-0.81855 0.81855,-1.53789 0.0744,-0.12402 0.17364,-0.17363 0.0992,-0.0496 0.14882,0.0744 0.59532,1.78594 0.64493,3.64629 0.0744,1.83555 -0.34727,3.32383 -0.12402,0.44648 -0.34726,1.0418 -0.22325,0.59531 -0.57051,1.14101 -0.32246,0.5457 -0.79375,0.99219 -0.47129,0.42168 -1.09141,0.57051 -0.89297,0.22324 -1.83555,0.0992 -0.94257,-0.12403 -1.83554,-0.5209 -0.86817,-0.39688 -1.66192,-1.01699 -0.76894,-0.62012 -1.31464,-1.38907 -1.28985,1.86035 -3.19981,2.72852 -1.19062,0.5209 -2.45566,0.59531 -1.24024,0.0744 -2.48047,-0.24805 -1.21543,-0.32246 -2.40606,-1.01699 -1.19062,-0.69453 -2.30683,-1.71152 -0.47129,-0.44649 -0.91778,-0.86817 -0.42168,-0.44648 -0.84336,-0.79375 -0.39687,-0.37207 -0.76894,-0.59531 -0.37207,-0.22324 -0.71934,-0.22324 -0.74414,0 -1.71152,0.42168 -0.94258,0.42168 -1.83555,1.0418 -0.89297,0.62011 -1.5875,1.36425 -0.66972,0.71934 -0.86816,1.33946 z"
         style="font-size:50.8px;fill:url(#linearGradient945);fill-opacity:1;stroke:url(#linearGradient3729);stroke-opacity:1;stroke-width:0.7;stroke-miterlimit:4;stroke-dasharray:none"
         id="path105588" />
      <path
         d="m 356.39173,127.6446 q -2.28204,0.64492 -5.2834,1.51309 -3.00137,0.84336 -6.05235,1.6123 -3.02617,0.76895 -5.75468,1.28985 -2.70371,0.52089 -4.44004,0.52089 h -0.44649 q -0.79375,0 -1.16582,-0.59531 -0.39687,-0.62012 -0.39687,-1.33945 0,-0.71934 0.39687,-1.33945 0.37207,-0.62012 1.16582,-0.62012 h 0.44649 q 0.57051,0 1.33945,-0.0248 0.76895,-0.0248 1.5875,-0.0744 0.81856,-0.0744 1.61231,-0.17363 0.81855,-0.0992 1.48828,-0.27285 -0.59532,-0.32247 -1.16582,-0.89297 -0.57051,-0.57051 -1.0418,-1.28985 -0.44648,-0.71933 -0.76895,-1.53789 -0.32246,-0.81855 -0.44648,-1.63711 -0.22324,-1.53789 0.29766,-3.15019 0.52089,-1.63711 1.51308,-3.00137 1.01699,-1.36426 2.38125,-2.33164 1.38906,-0.96738 2.87735,-1.19063 1.86035,-0.27285 3.37343,0.0248 1.53789,0.27285 2.70371,0.91777 1.19063,0.64492 2.05879,1.51309 0.89297,0.84336 1.46348,1.71152 0.19844,0.32246 -0.17363,0.4961 -0.34727,0.14882 -0.59532,0 -1.5875,-0.89297 -3.1998,-1.14102 -1.61231,-0.27285 -3.59668,-0.12402 -0.96738,0.0744 -1.98438,0.32246 -0.99218,0.22324 -1.90996,0.57051 -0.91777,0.32246 -1.68671,0.76894 -0.76895,0.44649 -1.21543,0.94258 0,0.47129 0.17363,1.0666 0.17363,0.59531 0.49609,1.24024 0.32246,0.64492 0.74414,1.28984 0.42168,0.62012 0.94258,1.14101 0.5209,0.54571 1.14102,1.06661 0.62011,0.49609 1.21543,0.89296 0.62011,0.39688 1.16582,0.64493 0.5457,0.22324 0.89297,0.22324 1.5875,-0.29766 3.15019,-0.64492 1.5875,-0.37207 3.1502,-0.76895 1.56269,-0.42168 3.10058,-0.84336 1.53789,-0.44648 3.02617,-0.91777 0.17364,-0.0248 0.14883,0.0992 -0.79375,1.36426 -1.43867,2.33164 -0.64492,0.96738 -1.28984,1.71152 z"
         style="font-size:50.8px;fill:url(#linearGradient945);fill-opacity:1;stroke:url(#linearGradient3729);stroke-opacity:1;stroke-width:0.7;stroke-miterlimit:4;stroke-dasharray:none"
         id="path105590" />
      <path
         d="m 327.94076,128.28952 1.11621,-3.62148 q 0.0992,-0.27285 0.22324,-0.27285 0.12402,-0.0248 0.27285,0.22324 0.49609,0.79375 1.01699,1.73633 0.5209,0.94258 0.99219,1.68672 0.27285,0.24804 0.74414,0.37207 0.49609,0.12402 0.99219,0.19843 0.5209,0.0496 0.94258,0.0744 0.44648,0 0.62011,0 h 0.44649 q 0.79375,0 1.16582,0.62012 0.39687,0.59531 0.39687,1.31464 0,0.74414 -0.39687,1.36426 -0.37207,0.59531 -1.16582,0.59531 h -0.44649 q -1.24023,0 -2.43086,-0.14882 0.14883,1.41386 0.14883,2.97656 0.0248,1.56269 -0.22324,3.07578 -0.39688,2.48047 -1.81074,4.26641 -1.41387,1.78593 -3.39824,2.92695 -1.98438,1.14101 -4.31602,1.66191 -2.33164,0.54571 -4.63848,0.54571 -2.00918,0 -3.7455,-0.62012 -1.71153,-0.62012 -3.00137,-1.81074 -1.26504,-1.16582 -2.00918,-2.85254 -0.71934,-1.68672 -0.71934,-3.79512 0,-2.33164 0.74414,-4.51445 0.74414,-2.15801 2.0836,-4.09278 0.14883,-0.22324 0.27285,-0.19843 0.12402,0 0.22324,0.22324 0.0992,0.22324 0.0496,0.42168 -1.14102,2.23242 -1.46348,4.61367 -0.32246,2.40606 0.42168,4.31602 0.74414,1.90996 2.55489,3.12539 1.83554,1.24023 4.88652,1.24023 1.71152,0 3.42305,-0.27285 1.73632,-0.27285 3.34863,-0.89297 1.6123,-0.62012 3.02617,-1.6123 1.41387,-0.96739 2.53008,-2.38125 0.0496,-1.31465 -0.17363,-2.70371 -0.19844,-1.36426 -0.59532,-2.72852 -0.37207,-1.33945 -0.91777,-2.6293 -0.5457,-1.28984 -1.19062,-2.43086 z m -5.87872,-10.51718 3.05098,2.53007 q 0.19844,0.17364 0.0248,0.39688 l -2.03399,2.55488 q -0.17363,0.24805 -0.39687,0.0496 l -3.07578,-2.53008 q -0.19844,-0.17363 0,-0.42168 l 2.05878,-2.53007 q 0.17364,-0.22325 0.37207,-0.0496 z"
         style="font-size:50.8px;fill:url(#linearGradient945);fill-opacity:1;stroke:url(#linearGradient3729);stroke-opacity:1;stroke-width:0.7;stroke-miterlimit:4;stroke-dasharray:none"
         id="path105592" />
      <path
         d="m 286.46732,96.762766 q 0.14883,-0.09922 0.42168,-0.223242 0.27286,-0.148828 0.57051,-0.297656 0.29766,-0.173633 0.59531,-0.322461 0.29766,-0.148828 0.4961,-0.272852 -0.5457,-0.446484 -1.0418,-1.016992 -0.47129,-0.595313 -0.76894,-1.314648 -0.17364,-0.42168 -0.0744,-0.84336 0.12403,-0.446484 0.37207,-0.843359 0.34727,-0.545703 0.84336,-1.091406 0.5209,-0.570508 1.14102,-1.016993 0.62011,-0.471289 1.28984,-0.74414 0.69453,-0.297656 1.41387,-0.297656 0.29765,0 0.5457,0.198437 0.27285,0.173633 0.47129,0.446484 0.19844,0.248047 0.34727,0.545704 0.14882,0.297656 0.22324,0.545703 0.14883,0.570507 0,0.942578 -0.42168,0.917773 -0.66973,1.16582 -0.24805,0.223242 -0.44648,0.198438 -0.19844,-0.02481 -0.27285,-0.322461 -0.0744,-0.297657 -0.19844,-0.644922 -0.17363,-0.42168 -0.47129,-0.545703 -0.29766,-0.148828 -0.66973,-0.148828 -1.21543,0 -2.15801,0.868164 0.17364,0.446484 0.47129,0.892968 0.29766,0.42168 0.66973,0.79375 0.37207,0.347266 0.81856,0.570508 0.44648,0.223242 0.89296,0.272852 1.26504,0.124023 2.43086,-0.07441 1.16582,-0.223243 2.43086,-0.496094 0.0248,0.04961 -0.0744,0.42168 -0.0992,0.37207 -0.27285,0.818554 -0.14883,0.42168 -0.32246,0.768945 -0.14883,0.347266 -0.22325,0.347266 -1.04179,0.124024 -2.1332,0.322461 -1.0666,0.198438 -2.25723,0.545703 -1.21543,0.347266 -2.45566,0.967383 -1.21543,0.595312 -2.33164,1.16582 -0.17363,0.09922 -0.24805,0 -0.0992,-0.09922 -0.0744,-0.223242 0.0248,-0.148828 0.0992,-0.396875 0.0744,-0.272851 0.17363,-0.570508 0.0992,-0.297656 0.19844,-0.570508 0.12402,-0.297656 0.24804,-0.520898 z m 4.48965,3.671094 q 0.39688,0.0248 0.34727,0.91777 -0.0744,0.94258 -0.0248,1.86035 0.0744,0.89297 0.17364,1.81075 0.19843,2.20761 0.49609,4.56406 0.29766,2.33164 0.59531,4.71289 0.24805,2.35645 0.5209,4.71289 0.27285,2.35645 0.44649,4.58887 0.0992,0.86816 0.0992,2.03398 0,1.16582 -0.0992,2.38125 -0.0744,1.19063 -0.32247,2.30684 -0.22324,1.11621 -0.59531,1.86035 -0.22324,0.42168 -0.49609,0.5457 -0.22324,0.0248 -0.19844,-0.19844 -0.0992,-2.158 -0.27285,-4.34082 -0.14883,-2.20761 -0.42168,-4.48964 -0.27285,-2.35645 -0.5457,-4.66328 -0.27285,-2.30684 -0.5209,-4.61368 -0.27285,-2.30683 -0.5209,-4.61367 -0.24805,-2.30683 -0.49609,-4.63848 0.0744,-0.5705 0.22324,-1.16582 0.17363,-0.62011 0.47129,-1.26503 0.62011,-1.61231 0.84336,-1.95957 0.22324,-0.34727 0.29765,-0.34727 z"
         style="font-size:50.8px;fill:url(#linearGradient945);fill-opacity:1;stroke:url(#linearGradient3729);stroke-opacity:1;stroke-width:0.7;stroke-miterlimit:4;stroke-dasharray:none"
         id="path105594" />
      <path
         d="m 279.67081,121.91472 q -0.0992,-0.99219 -0.57051,-2.08359 -0.44648,-1.11622 -1.0666,-2.15801 -0.62012,-1.0666 -1.33945,-1.98438 -0.71934,-0.94258 -1.33946,-1.5875 0.14883,-1.04179 0.42168,-2.08359 0.27285,-1.0418 0.59532,-2.0836 0.0744,-0.17363 0.19843,-0.0496 1.78594,1.78593 2.95176,3.84472 1.16582,2.05879 1.5875,4.16719 0.44649,2.08359 0.0744,4.11758 -0.34727,2.03398 -1.61231,3.81992 0.62012,0.0992 1.31465,0.32246 0.71933,0.22324 1.31465,0.5209 1.43867,0.74414 1.81074,2.1084 0.39687,1.33945 -0.0744,2.82773 -0.47129,1.43867 -1.5379,2.72852 -1.04179,1.28984 -2.48046,2.38125 -1.41387,1.11621 -3.1502,1.98437 -1.71152,0.89297 -3.52226,1.51309 -1.81075,0.62012 -3.62149,0.94258 -1.78594,0.34726 -3.37344,0.34726 -2.20761,0 -4.09277,-0.59531 -1.86035,-0.57051 -3.22461,-1.76113 -1.36426,-1.19063 -2.15801,-3.00137 -0.76894,-1.78594 -0.76894,-4.2416 0,-1.21543 0.24804,-2.48047 0.24805,-1.26504 0.66973,-2.48047 0.42168,-1.24023 1.01699,-2.38125 0.59532,-1.14102 1.26504,-2.1084 0.0992,-0.14883 0.19844,-0.12402 0.12402,0.0248 0.19844,0.14883 0.0744,0.0992 0.0992,0.24804 0.0496,0.14883 0,0.24805 -0.39688,0.86816 -0.76895,1.86035 -0.34726,0.96738 -0.62012,1.98438 -0.27285,1.01699 -0.42168,2.03398 -0.12402,1.01699 -0.0744,1.98438 0.0992,1.81074 0.89297,3.07578 0.81855,1.28984 2.05879,2.08359 1.24023,0.81856 2.75332,1.19063 1.51308,0.37207 3.05097,0.37207 3.32383,0 6.27559,-0.89297 2.97656,-0.86817 5.75469,-2.35645 0.39687,-0.22324 1.01699,-0.64492 0.64492,-0.39687 1.26504,-0.86816 0.62012,-0.47129 1.0666,-0.91778 0.47129,-0.44648 0.5209,-0.71933 -0.32246,-0.57051 -1.43867,-1.0418 -1.09141,-0.49609 -2.57969,-0.84336 -1.66191,-0.37207 -3.29902,-0.59531 -1.63711,-0.22324 -3.29903,-0.42168 0,-0.19844 0.0992,-0.62012 0.12402,-0.44648 0.29766,-0.89297 0.17363,-0.44648 0.37207,-0.81855 0.19844,-0.37207 0.34726,-0.42168 0.0248,-0.0248 0.4961,-0.14883 0.49609,-0.14883 1.19062,-0.37207 0.71934,-0.24805 1.53789,-0.5457 0.84336,-0.32246 1.5875,-0.69453 0.74414,-0.39688 1.26504,-0.84336 0.5209,-0.47129 0.62012,-0.99219 z m 1.95957,17.71055 3.05098,2.53007 q 0.19843,0.17364 0.0248,0.39688 l -2.03398,2.55488 q -0.17364,0.24805 -0.39688,0.0496 l -3.07578,-2.53008 q -0.19844,-0.17363 0,-0.42168 l 2.05879,-2.53008 q 0.17363,-0.22324 0.37207,-0.0496 z"
         style="font-size:50.8px;fill:url(#linearGradient945);fill-opacity:1;stroke:url(#linearGradient3729);stroke-opacity:1;stroke-width:0.7;stroke-miterlimit:4;stroke-dasharray:none"
         id="path105596" />
      <path
         d="m 238.12297,127.6446 q -2.28203,0.64492 -5.2834,1.51309 -3.00136,0.84336 -6.05234,1.6123 -3.02617,0.76895 -5.75469,1.28985 -2.70371,0.52089 -4.44004,0.52089 h -0.44648 q -0.79375,0 -1.16582,-0.59531 -0.39688,-0.62012 -0.39688,-1.33945 0,-0.71934 0.39688,-1.33945 0.37207,-0.62012 1.16582,-0.62012 h 0.44648 q 0.57051,0 1.33946,-0.0248 0.76894,-0.0248 1.5875,-0.0744 0.81855,-0.0744 1.6123,-0.17363 0.81856,-0.0992 1.48828,-0.27285 -0.59531,-0.32247 -1.16582,-0.89297 -0.5705,-0.57051 -1.04179,-1.28985 -0.44649,-0.71933 -0.76895,-1.53789 -0.32246,-0.81855 -0.44648,-1.63711 -0.22325,-1.53789 0.29765,-3.15019 0.5209,-1.63711 1.51309,-3.00137 1.01699,-1.36426 2.38125,-2.33164 1.38906,-0.96738 2.87734,-1.19063 1.86035,-0.27285 3.37344,0.0248 1.53789,0.27285 2.70371,0.91777 1.19063,0.64492 2.05879,1.51309 0.89297,0.84336 1.46348,1.71152 0.19843,0.32246 -0.17364,0.4961 -0.34726,0.14882 -0.59531,0 -1.5875,-0.89297 -3.1998,-1.14102 -1.61231,-0.27285 -3.59668,-0.12402 -0.96739,0.0744 -1.98438,0.32246 -0.99219,0.22324 -1.90996,0.57051 -0.91777,0.32246 -1.68672,0.76894 -0.76894,0.44649 -1.21543,0.94258 0,0.47129 0.17364,1.0666 0.17363,0.59531 0.49609,1.24024 0.32246,0.64492 0.74414,1.28984 0.42168,0.62012 0.94258,1.14101 0.5209,0.54571 1.14101,1.06661 0.62012,0.49609 1.21543,0.89296 0.62012,0.39688 1.16582,0.64493 0.54571,0.22324 0.89297,0.22324 1.5875,-0.29766 3.1502,-0.64492 1.5875,-0.37207 3.15019,-0.76895 1.5627,-0.42168 3.10059,-0.84336 1.53789,-0.44648 3.02617,-0.91777 0.17363,-0.0248 0.14883,0.0992 -0.79375,1.36426 -1.43867,2.33164 -0.64493,0.96738 -1.28985,1.71152 z"
         style="font-size:50.8px;fill:url(#linearGradient945);fill-opacity:1;stroke:url(#linearGradient3729);stroke-opacity:1;stroke-width:0.7;stroke-miterlimit:4;stroke-dasharray:none"
         id="path105598" />
      <path
         d="m 208.67981,129.18249 q 0.0744,0.0248 0.14882,0 0.0744,-0.0496 -0.0496,-0.22324 -0.42167,-0.47129 -0.71933,-0.96738 -0.29766,-0.5209 -0.5209,-0.96739 -0.22324,-0.44648 -0.37207,-0.79375 -0.14883,-0.34726 -0.24805,-0.5457 -0.24804,-0.44648 -0.64492,-0.37207 -0.44648,0.0992 -1.0914,0.5209 -0.64493,0.42168 -1.06661,0.99219 -0.14882,0.17363 -0.14882,0.24804 0,0.0744 0.19843,0.19844 0.39688,0.29766 0.96739,0.62012 0.5705,0.32246 1.19062,0.59531 0.62012,0.24805 1.24024,0.44649 0.62011,0.19843 1.11621,0.24804 z m 2.45566,2.30684 q -0.22324,0.5209 -0.49609,1.11621 -0.24805,0.62012 -0.47129,0.69453 -0.81856,0.14883 -2.1084,-0.12402 -1.28984,-0.24805 -2.55488,-0.76895 -1.26504,-0.5209 -2.23243,-1.24023 -0.94257,-0.71934 -1.04179,-1.51309 -0.66973,0.89297 -1.43867,1.46348 -0.74415,0.5457 -1.51309,0.89297 -0.79375,0.32246 -1.5627,0.44648 -0.74414,0.12402 -1.41386,0.12402 h -0.44649 q -0.79375,0 -1.19062,-0.59531 -0.39688,-0.62012 -0.39688,-1.33945 0,-0.74414 0.39688,-1.33945 0.39687,-0.62012 1.19062,-0.62012 h 0.44649 q 0.91777,0 1.83554,-0.0496 0.91778,-0.0496 1.78594,-0.29766 0.86817,-0.24804 1.68672,-0.76894 0.81855,-0.54571 1.53789,-1.51309 0.39688,-0.5209 0.86816,-1.0418 0.47129,-0.5457 0.94258,-0.96738 0.4961,-0.42168 0.99219,-0.66972 0.49609,-0.27286 0.94258,-0.27286 0.44648,0 0.96738,0.42168 0.5209,0.42168 1.0418,0.99219 0.5457,0.5457 1.01699,1.14102 0.49609,0.59531 0.84336,0.91777 0.59531,0.62012 1.26504,1.01699 0.66973,0.39688 1.38906,0.64492 0.71934,0.24805 1.51309,0.34727 0.79375,0.0992 1.66191,0.0992 h 0.44649 q 0.76894,0 1.16582,0.62012 0.39687,0.59531 0.39687,1.33945 0,0.71933 -0.39687,1.33945 -0.39688,0.59531 -1.16582,0.59531 h -0.44649 q -0.71933,0 -1.43867,-0.0248 -0.71934,-0.0248 -1.41387,-0.14883 -0.69453,-0.0992 -1.36426,-0.32246 -0.64492,-0.22324 -1.24023,-0.59531 z"
         style="font-size:50.8px;fill:url(#linearGradient945);fill-opacity:1;stroke:url(#linearGradient3729);stroke-opacity:1;stroke-width:0.7;stroke-miterlimit:4;stroke-dasharray:none"
         id="path105600" />
      <path
         d="m 189.00969,126.00749 q 0.0992,-0.34726 0.34727,-0.0496 0.76895,0.91778 1.53789,1.46348 0.76895,0.5209 1.5875,0.79375 0.42168,0.14883 0.81856,0.24805 0.39687,0.0744 0.81855,0.14882 0.44648,0.0496 0.96738,0.0744 0.5209,0 1.19063,0 h 0.44648 q 0.79375,0 1.19063,0.62012 0.39687,0.59531 0.39687,1.31464 0,0.74414 -0.39687,1.36426 -0.39688,0.59531 -1.19063,0.59531 h -0.44648 q -0.81856,0 -1.68672,-0.0496 -0.84336,-0.0744 -1.66191,-0.19843 -0.24805,1.36426 -0.59532,2.55488 -0.34726,1.21543 -0.71933,2.25723 -0.89297,2.30683 -2.0836,4.11757 -1.14101,1.78594 -3.44785,3.02618 -1.26504,0.69453 -2.6293,1.04179 -1.36425,0.34727 -2.72851,0.42168 -0.89297,0.0496 -1.76113,0.0248 -0.84336,-0.0248 -1.73633,-0.14883 -0.89297,-0.0992 -1.83555,-0.34727 -0.96738,-0.22324 -2.03398,-0.62011 -0.29766,-0.12403 -0.39688,-0.29766 -0.12402,-0.17363 -0.0496,-0.34726 0.12403,-0.32247 0.99219,-0.32247 1.48828,0.0248 2.75332,-0.0496 1.26504,-0.0744 2.45566,-0.34726 1.19063,-0.24805 2.38125,-0.71934 1.21543,-0.44648 2.6293,-1.21543 1.51309,-0.81855 2.70371,-1.86035 1.19063,-1.01699 2.0836,-2.20762 0.86816,-1.19062 1.48828,-2.50527 0.62011,-1.31465 0.96738,-2.72851 -0.94258,-0.39688 -1.83555,-1.09141 -0.89297,-0.69453 -1.46347,-1.43867 z"
         style="font-size:50.8px;fill:url(#linearGradient945);fill-opacity:1;stroke:url(#linearGradient3729);stroke-opacity:1;stroke-width:0.7;stroke-miterlimit:4;stroke-dasharray:none"
         id="path105602" />
      <path
         d="m 168.397,123.70066 q -0.37207,0.0248 -0.66973,0.29765 -0.29765,0.24805 -0.5209,0.59531 -0.19843,0.32247 -0.32246,0.66973 -0.0992,0.34727 -0.0992,0.5209 0.32247,0.5209 0.89297,0.71934 0.57051,0.17363 1.14102,0.17363 0.64492,-0.0496 1.16582,-0.29766 0.5457,-0.27285 0.74414,-0.5209 0,-0.32246 -0.24805,-0.69453 -0.22324,-0.39687 -0.59531,-0.71933 -0.34726,-0.32246 -0.76894,-0.5209 -0.39688,-0.22324 -0.71934,-0.22324 z m 3.22461,4.36562 q -0.34727,1.0418 -1.26504,1.76113 -0.91777,0.71934 -2.25723,0.71934 -0.66972,0 -1.28984,-0.34727 -0.59531,-0.34726 -1.0418,-0.89296 -0.44648,-0.57051 -0.69453,-1.28985 -0.22324,-0.71933 -0.14883,-1.46347 0.0496,-0.5209 0.22325,-1.21543 0.17363,-0.69454 0.44648,-1.41387 0.27285,-0.71934 0.62012,-1.43867 0.37207,-0.71934 0.81855,-1.26504 0.44649,-0.54571 0.94258,-0.89297 0.49609,-0.34727 1.0418,-0.34727 0.96738,0 1.81074,0.76895 0.84336,0.76894 1.46348,1.95957 0.62011,1.16582 0.96738,2.60449 0.34726,1.41387 0.32246,2.75332 -0.0248,1.78594 -0.47129,3.7207 -0.42168,1.90997 -1.14102,3.77032 -0.71933,1.86035 -1.66191,3.49746 -0.91777,1.66191 -1.95957,2.80293 -1.53789,1.68672 -3.27422,2.57968 -1.71152,0.91778 -3.59668,1.19063 -1.88515,0.27285 -3.94394,0 -2.03399,-0.27285 -4.2168,-0.94258 -0.19844,-0.0744 -0.24805,-0.24805 -0.0744,-0.17363 0.0248,-0.37207 0.0744,-0.17363 0.29765,-0.32246 0.19844,-0.12402 0.54571,-0.0992 2.08359,0.17364 3.77031,-0.0744 1.71152,-0.24805 3.175,-0.86816 1.48828,-0.59532 2.85254,-1.53789 1.36426,-0.94258 2.80293,-2.20762 0.96738,-0.84336 1.86035,-1.95957 0.91777,-1.11621 1.63711,-2.30684 0.74414,-1.21543 1.24023,-2.43086 0.4961,-1.21543 0.69453,-2.25722 0.0248,-0.22325 0,-0.4961 -0.0248,-0.29765 -0.0744,-0.5705 -0.0496,-0.27286 -0.12402,-0.4961 -0.0744,-0.24805 -0.14883,-0.37207 z"
         style="font-size:50.8px;fill:url(#linearGradient945);fill-opacity:1;stroke:url(#linearGradient3729);stroke-opacity:1;stroke-width:0.7;stroke-miterlimit:4;stroke-dasharray:none"
         id="path105604" />
      <path
         d="m 140.11965,100.43386 q 0.39687,0.0248 0.37207,0.91777 -0.0496,0.94258 0.0248,1.86035 0.0744,0.89297 0.19844,1.81075 0.24805,2.20761 0.59531,4.56406 0.34727,2.33164 0.69453,4.71289 0.32247,2.35645 0.64493,4.71289 0.32246,2.35645 0.5457,4.58887 0.0992,0.86816 0.12402,2.03398 0.0496,1.16582 -0.0248,2.38125 -0.0496,1.19063 -0.27285,2.30684 -0.19844,1.11621 -0.57051,1.86035 -0.19844,0.42168 -0.47129,0.5457 -0.22324,0.0248 -0.19844,-0.19844 -0.14883,-2.158 -0.37207,-4.34082 -0.19844,-2.20761 -0.5209,-4.48964 -0.32246,-2.35645 -0.64492,-4.66328 -0.32246,-2.30684 -0.62012,-4.61368 -0.32246,-2.30683 -0.64492,-4.61367 -0.29765,-2.30683 -0.59531,-4.63848 0.0744,-0.5705 0.22324,-1.16582 0.14883,-0.62011 0.42168,-1.26503 0.59531,-1.61231 0.79375,-1.95957 0.22324,-0.34727 0.29766,-0.34727 z"
         style="font-size:50.8px;fill:url(#linearGradient945);fill-opacity:1;stroke:url(#linearGradient3729);stroke-opacity:1;stroke-width:0.7;stroke-miterlimit:4;stroke-dasharray:none"
         id="path105606" />
      <path
         d="m 110.80051,128.7112 q 0.86816,0 2.03399,-0.0496 1.19062,-0.0744 2.62929,-0.39687 1.43867,-0.34727 3.10059,-1.01699 1.66191,-0.69453 3.49746,-1.93477 0.47129,-0.29766 0.86816,-0.29766 0.39688,0 0.81856,0.24805 0.5209,0.32246 1.36426,0.66973 0.86816,0.34726 1.76113,0.64492 0.91777,0.29766 1.76113,0.5457 0.84336,0.22325 1.36426,0.32246 0.86816,0.19844 1.46348,0.0496 0.59531,-0.17363 0.64492,-0.74414 -0.29766,-2.6789 -0.62012,-5.03535 -0.29766,-2.35644 -0.59531,-4.71289 -0.29766,-2.38125 -0.62012,-4.93613 -0.29766,-2.55488 -0.59531,-5.68028 -0.12403,-1.04179 -0.32246,-2.00918 -0.17364,-0.96738 -0.79375,-1.90996 -0.0992,-0.14882 -0.17364,-0.22324 -0.0496,-0.0744 -0.0744,-0.12402 0,-0.0744 0.0248,-0.14883 0.0496,-0.0992 0.12403,-0.24805 l 1.53789,-2.852536 q 0.12402,-0.198437 0.24805,-0.198437 0.12402,0 0.17363,0.198437 0.34726,1.215426 1.01699,2.430856 0.69453,1.21543 1.90996,1.93477 -0.37207,0.57051 -0.64492,0.99219 -0.27285,0.42168 -0.47129,0.79375 -0.17363,0.34726 -0.24805,0.69453 -0.0744,0.32246 -0.0248,0.71933 0.22324,2.18282 0.49609,4.58887 0.27285,2.40606 0.5209,4.68809 0.27285,2.25722 0.49609,4.19199 0.22325,1.90996 0.32247,3.12539 0.0992,1.16582 -0.0496,2.60449 -0.12403,1.41387 -0.54571,2.70371 -0.42168,1.26504 -1.14101,2.15801 -0.71934,0.86816 -1.76114,0.91777 -0.52089,0.0248 -1.48828,-0.19843 -0.96738,-0.24805 -2.03398,-0.59532 -1.0418,-0.37207 -2.03399,-0.76894 -0.96738,-0.42168 -1.53789,-0.71934 -0.49609,-0.24804 -0.76894,-0.24804 -0.24805,-0.0248 -0.69453,0.27285 -1.31465,0.69453 -2.53008,1.31465 -1.21543,0.62011 -2.50527,1.0914 -1.28985,0.47129 -2.72852,0.74414 -1.43867,0.27285 -3.175,0.27285 h -0.19844 q -0.79375,0 -1.16582,-0.59531 -0.39687,-0.62012 -0.39687,-1.33945 0,-0.71934 0.39687,-1.31465 0.37207,-0.62012 1.16582,-0.62012 z m 4.96094,7.98711 3.05097,2.53008 q 0.19844,0.17363 0.0248,0.39688 l -2.03398,2.55488 q -0.17364,0.24805 -0.39688,0.0496 l -3.07578,-2.53008 q -0.19844,-0.17363 0,-0.42168 l 2.05879,-2.53008 q 0.17363,-0.22324 0.37207,-0.0496 z"
         style="font-size:50.8px;fill:url(#linearGradient945);fill-opacity:1;stroke:url(#linearGradient3729);stroke-opacity:1;stroke-width:0.7;stroke-miterlimit:4;stroke-dasharray:none"
         id="path105608" />
      <path
         d="m 72.105198,126.82605 q 2.827734,-0.57051 5.55625,-1.43868 2.728516,-0.89296 5.506641,-2.00917 0.173632,-0.0248 0.173632,0.19843 -0.223242,1.26504 -0.0248,2.15801 0.223242,0.89297 0.768945,1.51309 0.570508,0.59531 1.413867,0.94257 0.868164,0.34727 1.95957,0.5209 1.190625,-1.51308 2.455664,-2.95175 1.265039,-1.46348 2.654102,-2.77813 1.389062,-1.33945 2.902148,-2.48047 1.513086,-1.14101 3.22461,-2.05879 0.818554,-0.44648 1.860347,-0.57051 1.0418,-0.12402 2.13321,0.0248 1.0914,0.14883 2.1332,0.5457 1.0418,0.39688 1.86035,1.01699 0.84336,0.59532 1.36426,1.38907 0.5457,0.76894 0.59531,1.68672 -0.0992,2.10839 -0.84336,3.64628 -0.71933,1.5379 -1.90996,2.67891 1.26504,0.0744 2.50528,-0.0248 1.24023,-0.12403 2.30683,-0.12403 h 0.44649 q 0.5457,0 0.89296,0.29766 0.34727,0.27285 0.5209,0.71934 0.19844,0.42167 0.17364,0.91777 0,0.49609 -0.17364,0.94258 -0.17363,0.42168 -0.5457,0.71933 -0.34727,0.27285 -0.86816,0.27285 h -0.44649 q -1.21543,0 -2.82773,0.0248 -1.5875,0.0248 -3.42305,0.0496 -1.83555,0.0248 -3.81992,0.0248 -1.959572,0.0248 -3.919142,-0.0248 -1.339453,0.19844 -2.80293,0.24805 -1.463476,0.0496 -2.827734,-0.0248 -1.364258,-0.0496 -2.480469,-0.19844 -1.116211,-0.14883 -1.761133,-0.34726 -0.37207,0.5457 -0.570508,0.96738 -0.198437,0.44648 -0.322461,0.69453 -0.32246,0.69453 -0.719335,0.59531 -0.446485,-0.14882 -0.272852,-0.91777 0.04961,-0.19844 0.223242,-0.62012 0.173633,-0.39687 0.446485,-1.16582 -0.644922,-0.22324 -1.314649,-0.59531 -0.644922,-0.39687 -1.190625,-0.96738 -0.545703,-0.57051 -0.942578,-1.28985 -0.396875,-0.74414 -0.520898,-1.68671 -1.860352,0.79375 -3.695899,1.43867 -1.835547,0.62011 -3.943945,1.11621 -0.223242,1.56269 -0.545703,3.05097 -0.322461,1.48829 -0.719336,2.82774 -0.396875,1.33945 -0.868164,2.48047 -0.446484,1.16582 -0.917774,2.05879 -1.265039,2.40605 -3.299023,3.7207 -2.00918,1.33945 -4.564062,1.6123 -2.282032,0.24805 -4.241602,0 -1.95957,-0.22324 -3.745508,-0.91777 -0.471289,-0.17363 -0.570507,-0.37207 -0.09922,-0.19844 0.04961,-0.37207 0.124023,-0.17363 0.446484,-0.27285 0.297657,-0.0992 0.669727,-0.0744 1.265039,0.0496 2.207617,0.0248 0.942578,-0.0248 1.761133,-0.17363 0.843359,-0.14883 1.637109,-0.42168 0.79375,-0.24805 1.736328,-0.64492 1.661914,-0.69454 3.150196,-2.00918 1.513085,-1.31465 2.728515,-2.97657 1.21543,-1.63711 2.133203,-3.49746 0.917774,-1.86035 1.438672,-3.67109 -0.223242,0.0496 -0.595312,0.12402 -0.372071,0.0496 -0.545704,0.0744 -0.198437,0 -0.148828,-0.19844 0.124024,-0.79375 0.322461,-1.5627 0.198438,-0.76894 0.322461,-1.56269 0.04961,-0.27285 0.248047,-0.32246 z m 17.437695,2.1084 q 1.091406,0.22324 2.530078,0.24804 1.438672,0.0248 3.026172,-0.14883 1.5875,-0.17363 3.224609,-0.52089 1.661914,-0.37207 3.150198,-0.89297 1.51308,-0.54571 2.77812,-1.26504 1.28985,-0.71934 2.13321,-1.5875 -0.5209,-1.0666 -1.48829,-1.78594 -0.96738,-0.74414 -2.10839,-1.11621 -1.14102,-0.39688 -2.33164,-0.42168 -1.165825,-0.0248 -2.108403,0.34727 -1.289844,0.49609 -2.505273,1.28984 -1.190625,0.76894 -2.306836,1.73633 -1.091406,0.94258 -2.108399,2.00918 -0.992187,1.0666 -1.885156,2.1084 z"
         style="font-size:50.8px;fill:url(#linearGradient945);fill-opacity:1;stroke:url(#linearGradient3729);stroke-opacity:1;stroke-width:0.7;stroke-miterlimit:4;stroke-dasharray:none"
         id="path105610" />
      <path
         d="m 53.228831,133.27527 q -1.686719,1.41386 -3.571875,2.60449 -1.885156,1.19062 -3.91914,2.05879 -2.033985,0.86816 -4.216797,1.33945 -2.182813,0.49609 -4.440039,0.49609 -2.282031,0 -4.316016,-0.64492 -2.009179,-0.62012 -3.522265,-1.86035 -1.488282,-1.21543 -2.406055,-3.05098 -0.892969,-1.81074 -0.917773,-4.19199 -0.07441,-2.6293 0.74414,-5.10976 0.84336,-2.48047 2.406055,-4.63848 0.148828,-0.19844 0.248047,-0.17363 0.09922,0 0.173633,0.12402 0.07441,0.0992 0.09922,0.24805 0.02481,0.12402 0.02481,0.19843 -0.496094,1.017 -0.967383,2.13321 -0.446484,1.11621 -0.74414,2.28203 -0.297657,1.16582 -0.347266,2.38125 -0.02481,1.21543 0.396875,2.43086 0.446484,1.43867 1.240234,2.50527 0.818555,1.0666 1.885157,1.78594 1.066601,0.74414 2.33164,1.14101 1.289844,0.39688 2.703711,0.5209 2.033984,0.17364 4.216797,-0.12402 2.182812,-0.27285 4.34082,-0.91777 2.158008,-0.66973 4.142383,-1.63711 2.00918,-0.96739 3.671094,-2.15801 0.421679,-0.29766 0.446484,-0.49609 0.0248,-0.22325 -0.173633,-0.37208 -0.173633,-0.17363 -0.496094,-0.27285 -0.297656,-0.0992 -0.520898,-0.17363 -0.719336,-0.19844 -1.562695,-0.32246 -0.84336,-0.14883 -1.736328,-0.27285 -0.868164,-0.12403 -1.736329,-0.24805 -0.843359,-0.14883 -1.562695,-0.32246 -0.818555,-0.19844 -1.562695,-0.59531 -0.719336,-0.39688 -1.265039,-0.94258 -0.545703,-0.57051 -0.892969,-1.28984 -0.322461,-0.71934 -0.347266,-1.53789 -0.04961,-1.16582 0.223243,-2.33165 0.297656,-1.16582 0.843359,-2.25722 0.545703,-1.11621 1.265039,-2.1332 0.744141,-1.0418 1.5875,-1.95958 0.868164,-0.96738 1.860352,-1.81074 0.992187,-0.84336 2.009179,-1.41386 1.041797,-0.57051 2.083594,-0.79375 1.041797,-0.24805 2.00918,-0.0248 1.041796,0.27285 1.661914,0.99219 0.620117,0.71933 0.843359,1.63711 0.248047,0.91777 0.124023,1.90996 -0.124023,0.99219 -0.545703,1.78594 -0.07441,0.0992 -0.223242,0.0744 -0.124023,-0.0248 -0.173633,-0.17363 -0.148828,-0.37207 -0.471289,-0.84336 -0.322461,-0.47129 -0.768945,-0.89297 -0.446484,-0.42168 -0.992188,-0.69453 -0.520898,-0.29766 -1.11621,-0.29766 -1.190625,0 -2.480469,0.62012 -1.265039,0.62012 -2.430859,1.5875 -1.165821,0.96738 -2.083594,2.1332 -0.892969,1.16582 -1.339453,2.25723 -0.446485,0.86816 -0.223242,1.46348 0.248046,0.5705 0.917773,1.04179 0.669726,0.4961 1.562695,0.81856 0.917774,0.32246 1.885156,0.5457 0.967383,0.22324 1.934766,0.37207 0.967383,0.12402 1.785938,0.24805 0.595312,0.0992 1.265039,0.24804 0.694531,0.14883 1.289843,0.42168 0.595313,0.24805 1.016992,0.66973 0.42168,0.39687 0.496094,1.01699 0.07441,0.54571 -0.0248,1.26504 -0.09922,0.69453 -0.347266,1.38906 -0.223242,0.69453 -0.570508,1.31465 -0.322461,0.59531 -0.719336,0.91778 z"
         style="font-size:50.8px;fill:url(#linearGradient945);fill-opacity:1;stroke:url(#linearGradient3729);stroke-opacity:1;stroke-width:0.7;stroke-miterlimit:4;stroke-dasharray:none"
         id="path105612" />
    </g>
  </g>
</svg>
