<?xml version="1.0" encoding="UTF-8" standalone="no"?>
<!-- Created with Inkscape (http://www.inkscape.org/) -->

<svg
   width="179.09496mm"
   height="70.103165mm"
   viewBox="0 0 179.09496 70.103165"
   version="1.1"
   id="svg1631"
   inkscape:version="1.1 (c68e22c387, 2021-05-23)"
   sodipodi:docname="image-1.svg"
   xmlns:inkscape="http://www.inkscape.org/namespaces/inkscape"
   xmlns:sodipodi="http://sodipodi.sourceforge.net/DTD/sodipodi-0.dtd"
   xmlns="http://www.w3.org/2000/svg"
   xmlns:svg="http://www.w3.org/2000/svg">
  <sodipodi:namedview
     id="namedview1633"
     pagecolor="#ffffff"
     bordercolor="#666666"
     borderopacity="1.0"
     inkscape:pageshadow="2"
     inkscape:pageopacity="0.0"
     inkscape:pagecheckerboard="true"
     inkscape:document-units="mm"
     showgrid="true"
     fit-margin-top="1.28"
     fit-margin-left="1.28"
     fit-margin-right="1.28"
     fit-margin-bottom="1.28"
     inkscape:zoom="0.77771465"
     inkscape:cx="-36.645832"
     inkscape:cy="454.53689"
     inkscape:window-width="3840"
     inkscape:window-height="2015"
     inkscape:window-x="0"
     inkscape:window-y="0"
     inkscape:window-maximized="1"
     inkscape:current-layer="text3505"
     lock-margins="true"
     borderlayer="true">
    <inkscape:grid
       type="xygrid"
       id="grid96022"
       originx="-0.71999997"
       originy="-0.71999969" />
  </sodipodi:namedview>
  <defs
     id="defs1628">
    <rect
       x="27.01726"
       y="72.442825"
       width="691.16272"
       height="305.72849"
       id="rect3507" />
  </defs>
  <g
     inkscape:label="Layer 1"
     inkscape:groupmode="layer"
     id="layer1"
     transform="translate(-5.2730879,-20.591014)">
    <g
       aria-label="رواية السوسي"
       transform="matrix(0.26458333,0,0,0.26458333,-4.1384766e-7,-1.8633496e-6)"
       id="text3505"
       style="font-size:192px;line-height:1.25;white-space:pre;shape-inside:url(#rect3507)">
      <path
         d="m 691.98633,153.91211 q 0,10.125 -3.09375,10.6875 l -2.53125,-3.09375 q -2.625,0.0937 -4.3125,3.09375 -4.59375,7.96875 -9.75,20.8125 -4.21875,10.78125 -8.4375,21.46875 -3.5625,8.4375 -10.96875,16.6875 -7.875,8.8125 -15.65625,12.28125 -8.8125,4.03125 -24.28125,4.03125 -23.34375,0 -24.09375,-2.34375 l 0.9375,-0.65625 q 19.6875,0 36.5625,-8.4375 17.53125,-8.8125 28.125,-24.84375 5.71875,-8.71875 12.28125,-23.15625 l 8.625,-19.3125 q 7.3125,-14.53125 11.34375,-14.53125 2.25,0 3.84375,2.625 1.40625,2.25 1.40625,4.6875 z"
         style="font-family:'Diwani Letter';-inkscape-font-specification:'Diwani Letter, Normal'"
         id="path97454" />
      <path
         d="m 622.79883,160.47461 q 0,19.3125 -15.65625,43.3125 -16.03125,24.46875 -33.28125,30.28125 -12.46875,4.21875 -36,4.21875 -6.84375,0 -6.84375,-1.78125 0,-0.84375 7.40625,-2.71875 10.96875,-2.71875 16.40625,-4.59375 16.78125,-5.8125 31.6875,-17.71875 15,-12 23.8125,-27 6.09375,-10.3125 6.09375,-17.0625 0,-1.875 -1.40625,-5.90625 -5.25,5.8125 -12.1875,5.8125 -3.09375,0 -5.625,-1.875 -2.53125,-1.875 -2.53125,-4.875 0,-6.28125 7.40625,-19.6875 2.25,-4.125 6.5625,-4.125 14.15625,0 14.15625,23.71875 z"
         style="font-family:'Diwani Letter';-inkscape-font-specification:'Diwani Letter, Normal'"
         id="path97456" />
      <path
         d="m 558.39258,164.50586 q 0,24.9375 -6.09375,35.90625 -7.21875,13.125 -29.15625,21.09375 -3.09375,1.125 -3.9375,1.125 -0.84375,0 -0.9375,-0.75 2.0625,-4.21875 6.84375,-9.375 4.125,-4.3125 8.15625,-8.53125 9.375,-10.5 12.84375,-16.21875 5.90625,-9.65625 5.90625,-19.5 0,-7.03125 -6.1875,-24.1875 -5.4375,-15 -10.125,-23.90625 -2.4375,18 -2.4375,23.25 0,9.75 -2.15625,10.78125 -3.09375,-0.5625 -3.09375,-19.3125 0,-34.78125 5.8125,-52.218751 10.5,18.281251 17.25,39.562501 7.3125,23.34375 7.3125,42.28125 z"
         style="font-family:'Diwani Letter';-inkscape-font-specification:'Diwani Letter, Normal'"
         id="path97458" />
      <path
         d="m 483.11133,159.16211 q 0,2.71875 -3.1875,16.125 -4.125,17.25 -15.1875,26.625 l 4.78125,-17.625 q 3.5625,-2.625 6.75,-9.09375 v -2.0625 q 0,-9.75 -4.21875,-14.625 -2.4375,2.15625 -3.9375,5.15625 l -1.03125,0.0937 -0.1875,-0.65625 q 0.84375,-5.625 3.65625,-12.5625 3.375,-8.34375 6.84375,-10.3125 5.71875,8.15625 5.71875,18.9375 z m -2.4375,54.84375 -1.5,7.21875 q -1.03125,4.875 -10.96875,11.625 -8.34375,5.71875 -14.625,7.875 l -0.0937,-0.65625 q 0,-3 5.8125,-14.625 2.4375,-1.3125 7.40625,-3.28125 0.84375,-0.28125 13.96875,-8.15625 z"
         style="font-family:'Diwani Letter';-inkscape-font-specification:'Diwani Letter, Normal'"
         id="path97460" />
      <path
         d="m 454.89258,139.75586 q -2.34375,5.25 -6,11.8125 -1.40625,1.59375 -5.53125,3.1875 -4.125,1.59375 -6.28125,1.59375 -0.84375,0 -2.53125,-0.375 -1.6875,-0.46875 -2.53125,-0.46875 -1.78125,0 -4.3125,2.15625 1.3125,-3.9375 8.53125,-15.09375 h 0.75 q 5.90625,0.0937 17.90625,-2.8125 z m 16.125,43.96875 -4.6875,17.71875 q -4.96875,2.15625 -10.96875,2.15625 -5.0625,0 -10.3125,-4.875 -5.25,-4.96875 -7.78125,-4.96875 -4.125,0 -12.1875,6.46875 -5.4375,4.875 -10.875,9.65625 1.3125,-8.15625 4.03125,-14.90625 1.96875,-4.875 11.53125,-12.46875 9.65625,-7.59375 14.625,-7.59375 3.28125,0 6.9375,6 3.75,5.90625 9.1875,5.90625 5.25,0 10.5,-3.09375 z"
         style="font-family:'Diwani Letter';-inkscape-font-specification:'Diwani Letter, Normal'"
         id="path97462" />
      <path
         d="m 386.17383,164.50586 q 0,24.9375 -6.09375,35.90625 -7.21875,13.125 -29.15625,21.09375 -3.09375,1.125 -3.9375,1.125 -0.84375,0 -0.9375,-0.75 2.0625,-4.21875 6.84375,-9.375 4.125,-4.3125 8.15625,-8.53125 9.375,-10.5 12.84375,-16.21875 5.90625,-9.65625 5.90625,-19.5 0,-7.03125 -6.1875,-24.1875 -5.4375,-15 -10.125,-23.90625 -2.4375,18 -2.4375,23.25 0,9.75 -2.15625,10.78125 -3.09375,-0.5625 -3.09375,-19.3125 0,-34.78125 5.8125,-52.218751 10.5,18.281251 17.25,39.562501 7.3125,23.34375 7.3125,42.28125 z"
         style="font-family:'Diwani Letter';-inkscape-font-specification:'Diwani Letter, Normal'"
         id="path97464" />
      <path
         d="m 332.83008,124.28711 q 0,26.4375 -6.75,43.6875 -8.0625,20.625 -27.5625,34.125 l 4.6875,-17.53125 q 23.90625,-19.125 23.90625,-38.4375 0,-14.4375 -9,-34.96875 -1.78125,9.1875 -5.34375,27.46875 -1.5,7.875 -2.53125,7.875 l -0.84375,-0.28125 -0.1875,-1.21875 q 0,-7.59375 3.9375,-28.5 4.125,-22.593751 7.125,-25.968751 5.15625,3.1875 9.09375,15.468751 3.46875,10.59375 3.46875,18.28125 z"
         style="font-family:'Diwani Letter';-inkscape-font-specification:'Diwani Letter, Normal'"
         id="path97466" />
      <path
         d="m 304.51758,183.25586 -4.875,18.09375 q -6.84375,5.0625 -16.96875,5.0625 -7.875,0 -12.5625,-5.625 -4.21875,-5.25 -4.21875,-13.03125 0,-1.96875 0.28125,-3.9375 l -2.0625,0.375 q -3,5.0625 -7.78125,8.90625 -5.8125,4.5 -10.6875,3.9375 -2.90625,2.71875 -5.90625,4.875 l 4.78125,-17.625 q 2.4375,-1.5 4.3125,-6.28125 2.0625,-5.34375 3.5625,-6.84375 l 0.75,0.28125 q -0.1875,4.125 -0.75,7.875 2.0625,0 6.75,-4.5 4.03125,-3.84375 5.4375,-6.375 0.84375,-1.59375 2.71875,-7.78125 0.375,-1.40625 2.0625,-2.90625 l 0.5625,0.5625 0.1875,4.3125 q 0,0.65625 -0.5625,4.3125 0.9375,0 4.03125,-2.25 3.46875,-2.53125 7.125,-10.03125 3.375,-7.125 3.75,-7.3125 l 0.46875,0.5625 v 1.875 q 0,8.15625 -4.21875,17.90625 -4.59375,10.59375 -10.875,14.53125 0.9375,10.21875 13.03125,10.21875 11.34375,0 21.65625,-9.1875 z"
         style="font-family:'Diwani Letter';-inkscape-font-specification:'Diwani Letter, Normal'"
         id="path97468" />
      <path
         d="m 249.67383,183.16211 -4.78125,17.8125 q -6,4.78125 -21.65625,11.4375 -3.1875,13.96875 -15.09375,29.90625 -12.375,16.6875 -24.75,22.03125 -10.40625,4.5 -26.15625,4.5 -6,0 -17.8125,-1.96875 -14.0625,-2.25 -14.53125,-4.78125 l 0.75,-0.5625 q 2.8125,0.0937 8.90625,1.125 5.8125,0.9375 9,0.9375 6.46875,0 18.9375,-3.65625 27.09375,-7.96875 46.96875,-31.40625 6.9375,-8.15625 7.875,-14.25 -8.15625,2.25 -10.96875,2.25 -8.53125,0 -8.53125,-5.625 0,-5.90625 4.78125,-14.90625 5.34375,-10.03125 10.59375,-10.03125 4.59375,0 8.25,3.5625 3.65625,3.5625 3.65625,8.15625 15.75,-6.65625 24.5625,-14.53125 z"
         style="font-family:'Diwani Letter';-inkscape-font-specification:'Diwani Letter, Normal'"
         id="path97470" />
      <path
         d="m 165.01758,130.84961 q 0,11.15625 -4.03125,22.40625 -4.6875,12.75 -12.375,18.65625 -4.03125,3.09375 -6.75,2.8125 -9.65625,13.03125 -19.03125,13.03125 -1.875,5.8125 -14.71875,14.15625 l 4.6875,-17.34375 q 12.1875,-11.15625 14.4375,-16.5 0.84375,-2.34375 2.71875,-6.9375 l 1.21875,1.125 0.28125,0.84375 -1.03125,5.53125 q 0,0.84375 0.75,1.21875 3.375,0 7.6875,-5.15625 3.75,-4.59375 4.78125,-8.4375 0.65625,-3.09375 2.0625,-9.1875 l 1.3125,-0.9375 0.375,0.65625 q 0.5625,2.0625 0.5625,10.125 l 0.5625,0.1875 q 6.09375,-2.90625 9.46875,-9.9375 2.0625,-4.21875 3.65625,-11.90625 1.3125,-6.1875 2.25,-6.75 1.125,0.46875 1.125,2.34375 z"
         style="font-family:'Diwani Letter';-inkscape-font-specification:'Diwani Letter, Normal'"
         id="path97472" />
      <path
         d="m 114.39258,183.25586 -4.875,17.90625 q -7.875,4.875 -15.750002,9.84375 -14.34375,9.5625 -14.34375,12.65625 0,5.71875 11.53125,10.03125 8.0625,2.90625 8.0625,8.0625 0,19.59375 -16.40625,42.1875 -17.53125,24.1875 -36.28125,24.1875 -21.5625,0 -21.5625,-27.75 0,-15.65625 6.375,-30.5625 4.5,-10.59375 15,-25.78125 14.34375,-20.90625 17.34375,-25.96875 5.53125,-9.375 12.09375,-31.3125 l 1.5,0.65625 q -1.03125,12.09375 -10.5,32.53125 -3.75,8.0625 -14.25,22.96875 -11.4375,16.03125 -15.375,23.625 -7.21875,13.6875 -7.21875,25.5 0,9.9375 6.46875,15.46875 6.09375,5.15625 16.21875,5.15625 9.28125,0 25.3125,-15.375 16.125,-15.28125 16.125,-23.53125 0,-2.25 -5.0625,-3.84375 -7.03125,-2.15625 -9.28125,-3.75 -5.0625,-3.46875 -5.0625,-10.5 0,-23.71875 10.78125,-32.34375 9.84375,-6.75 29.156252,-20.0625 z m -52.500002,128.0625 q -2.25,9.65625 -4.59375,12.46875 -1.5,1.96875 -10.875,7.78125 -4.875,3.09375 -11.71875,6.375 l -0.09375,-0.65625 q 0,-2.4375 5.90625,-14.625 7.125,-3.5625 21.375,-11.34375 z"
         style="font-family:'Diwani Letter';-inkscape-font-specification:'Diwani Letter, Normal'"
         id="path97474" />
    </g>
  </g>
</svg>
